<?xml version="1.0"?>
<svg xmlns="http://www.w3.org/2000/svg" xmlns:xlink="http://www.w3.org/1999/xlink" version="1.1" id="Capa_1" x="0px" y="0px" viewBox="0 0 512.001 512.001" style="enable-background:new 0 0 512.001 512.001;" xml:space="preserve" width="512px" height="512px" class=""><g><g>
	<g>
		<path d="M482.001,333.58V160.181l21.664-10.742c5.094-2.526,8.321-7.715,8.336-13.401c0.014-5.686-3.188-10.891-8.27-13.443    l-241-121c-4.234-2.126-9.227-2.126-13.461,0l-241,121c-5.081,2.551-8.283,7.757-8.27,13.443    c0.015,5.686,3.242,10.875,8.336,13.401l112.665,55.866V286c0,39.562,95.699,45,135,45c39.299,0,135-5.428,135-45v-80.695    l61-30.248V333.58c-17.459,6.192-30,22.865-30,42.42c0,11.517,4.354,22.032,11.495,30c-7.141,7.968-11.495,18.484-11.495,30v61    c0,8.284,6.716,15,15,15h60c8.284,0,15-6.716,15-15v-61c0-11.517-4.354-22.032-11.495-30c7.142-7.968,11.495-18.483,11.495-30    C512.001,356.445,499.46,339.772,482.001,333.58z M256.001,301c-27.467,0-76.699-3.148-100.662-15    c23.825-11.784,72.63-15,100.662-15c27.467,0,76.699,3.148,100.662,15C332.838,297.784,284.033,301,256.001,301z M361.001,255.177    c-29.077-10.818-73.263-14.177-105-14.177c-31.717,0-75.957,3.371-105,14.177V138.578c2.974-2.296,12.033-6.973,31.631-11.023    c20.456-4.227,46.513-6.555,73.369-6.555c38.949,0,90.055,6.038,105,17.578V255.177z M391.001,171.819V136    c0-39.562-95.699-45-135-45c-39.299,0-135,5.428-135,45v35.819l-72.403-35.903L256.001,31.785l207.403,104.132L391.001,171.819z     M482.001,482h-30v-46c0-8.271,6.729-15,15-15s15,6.729,15,15V482z M467.001,391c-8.271,0-15-6.729-15-15s6.729-15,15-15    s15,6.729,15,15S475.272,391,467.001,391z" data-original="#000000" class="active-path" data-old_color="#8d8d9c" fill="#8d8d9c"/>
	</g>
</g></g> </svg>
